<svg width="188" height="170" viewBox="0 0 188 170" fill="none" xmlns="http://www.w3.org/2000/svg">
<g clip-path="url(#clip0_124_48)">
<path d="M179.567 57.7563L178.728 57.4759L186.426 34.6146C187.607 31.1055 187.339 27.2732 185.681 23.9606C184.023 20.648 181.11 18.1266 177.583 16.951L177.583 16.9508L128.905 0.726558C125.379 -0.449044 121.527 -0.182522 118.198 1.46749C114.869 3.11751 112.335 6.01585 111.153 9.52493L111.153 9.52557L68.93 134.944C68.345 136.682 68.1097 138.517 68.2374 140.345C68.3652 142.173 68.8536 143.958 69.6746 145.598C70.4957 147.239 71.6334 148.702 73.0228 149.905C74.4122 151.107 76.0261 152.026 77.7723 152.608L77.7729 152.608L126.449 168.833C129.976 170.009 133.827 169.742 137.156 168.092C140.485 166.442 143.019 163.544 144.201 160.034L173.249 73.7501L174.088 74.0296L179.567 57.7563Z" fill="#3F3D56"/>
<path d="M176.959 20.5728L170.605 18.4548C170.657 19.2651 170.508 20.0756 170.171 20.8151C169.835 21.5546 169.32 22.2003 168.674 22.6954C168.027 23.1905 167.268 23.5198 166.463 23.6542C165.659 23.7886 164.833 23.7241 164.059 23.4663L136.174 14.1712C135.4 13.9131 134.702 13.4697 134.142 12.8801C133.581 12.2905 133.174 11.5727 132.958 10.7899C132.742 10.0072 132.722 9.18351 132.901 8.39147C133.08 7.59943 133.452 6.86331 133.984 6.24796L128.049 4.26978C125.416 3.39193 122.539 3.59105 120.053 4.82336C117.567 6.05566 115.675 8.2202 114.792 10.8408L72.6297 136.075C71.7475 138.696 71.9476 141.558 73.1861 144.032C74.4245 146.506 76.5998 148.389 79.2335 149.266L128.144 165.57C130.778 166.447 133.654 166.248 136.14 165.016C138.627 163.784 140.519 161.619 141.401 158.999L183.563 33.7639C184.445 31.1432 184.245 28.2812 183.006 25.8074C181.768 23.3336 179.593 21.4506 176.959 20.5728L176.959 20.5728Z" fill="white"/>
<path d="M164.727 62.5876L112.53 45.189C112.274 45.1033 112.062 44.92 111.942 44.6793C111.821 44.4386 111.802 44.1601 111.887 43.905L116.225 31.021C116.311 30.7661 116.495 30.5556 116.737 30.4357C116.979 30.3158 117.259 30.2962 117.515 30.3814L169.713 47.7802C169.969 47.8659 170.18 48.0492 170.301 48.2899C170.421 48.5306 170.441 48.8091 170.355 49.0642L166.018 61.9478C165.932 62.2027 165.747 62.4132 165.506 62.5331C165.264 62.653 164.984 62.6725 164.727 62.5874L164.727 62.5876ZM117.386 30.7665C117.232 30.7155 117.064 30.7272 116.919 30.7991C116.774 30.8711 116.663 30.9974 116.611 31.1504L112.274 44.034C112.223 44.1871 112.234 44.3541 112.307 44.4985C112.379 44.643 112.506 44.7529 112.66 44.8043L164.857 62.2031C165.011 62.2542 165.179 62.2424 165.324 62.1705C165.469 62.0985 165.579 61.9722 165.631 61.8193L169.969 48.9363C170.02 48.7832 170.009 48.6162 169.936 48.4718C169.864 48.3273 169.737 48.2174 169.583 48.166L117.386 30.7665Z" fill="#3F3D56"/>
<path d="M147.566 113.564L95.3684 96.1654C95.1122 96.0797 94.9007 95.8964 94.7802 95.6557C94.6597 95.415 94.6401 95.1365 94.7256 94.8814L102.754 71.0335C102.84 70.7786 103.025 70.5681 103.267 70.4482C103.509 70.3283 103.788 70.3088 104.045 70.3939L156.242 87.7921C156.498 87.8778 156.71 88.0611 156.83 88.3018C156.951 88.5425 156.971 88.821 156.885 89.0761L148.856 112.924C148.77 113.179 148.585 113.39 148.344 113.51C148.102 113.63 147.822 113.649 147.566 113.564ZM103.915 70.7784C103.761 70.7273 103.593 70.739 103.448 70.811C103.303 70.883 103.193 71.0093 103.141 71.1622L95.1123 95.0102C95.0609 95.1632 95.0727 95.3303 95.145 95.4747C95.2173 95.6191 95.3443 95.7291 95.498 95.7805L147.695 113.179C147.849 113.23 148.017 113.219 148.162 113.147C148.307 113.075 148.418 112.948 148.47 112.795L156.499 88.9471C156.55 88.7941 156.538 88.627 156.466 88.4826C156.394 88.3382 156.267 88.2282 156.113 88.1768L103.915 70.7784Z" fill="#3F3D56"/>
<path d="M157.604 82.4646L134.406 74.7308C134.15 74.6451 133.939 74.4618 133.818 74.2211C133.698 73.9803 133.678 73.7019 133.764 73.4468L138.101 60.5631C138.187 60.3082 138.372 60.0978 138.613 59.9779C138.855 59.858 139.135 59.8384 139.392 59.9236L162.59 67.6571C162.846 67.7428 163.058 67.9261 163.179 68.1669C163.299 68.4076 163.319 68.686 163.233 68.9411L158.896 81.8248C158.81 82.0799 158.625 82.2906 158.383 82.4106C158.141 82.5306 157.861 82.55 157.604 82.4646ZM139.262 60.3092C139.108 60.2581 138.94 60.2698 138.795 60.3418C138.65 60.4137 138.539 60.54 138.488 60.693L134.15 73.5767C134.099 73.7297 134.111 73.8968 134.183 74.0412C134.256 74.1856 134.383 74.2956 134.536 74.347L157.735 82.0796C157.889 82.1307 158.057 82.119 158.202 82.047C158.347 81.9751 158.457 81.8487 158.509 81.6958L162.847 68.8121C162.898 68.6591 162.886 68.492 162.814 68.3476C162.742 68.2032 162.615 68.0932 162.461 68.0418L139.262 60.3092Z" fill="#E6E6E6"/>
<path d="M108.076 135.061L84.8777 127.328C84.6216 127.242 84.41 127.059 84.2895 126.818C84.169 126.578 84.1494 126.299 84.235 126.044L92.3285 102.003C92.4146 101.749 92.5989 101.538 92.8408 101.418C93.0827 101.298 93.3625 101.279 93.6189 101.364L116.817 109.097C117.074 109.182 117.285 109.366 117.406 109.606C117.526 109.847 117.546 110.125 117.46 110.381L109.366 134.421C109.28 134.676 109.096 134.887 108.854 135.007C108.612 135.126 108.332 135.146 108.076 135.061ZM93.4886 101.748C93.3348 101.697 93.1669 101.709 93.0218 101.781C92.8766 101.853 92.7661 101.979 92.7145 102.132L84.6207 126.173C84.5694 126.326 84.5812 126.493 84.6535 126.637C84.7258 126.782 84.8527 126.892 85.0065 126.943L108.205 134.676C108.359 134.727 108.527 134.715 108.672 134.643C108.817 134.572 108.928 134.445 108.98 134.292L117.073 110.252C117.124 110.099 117.113 109.931 117.04 109.787C116.968 109.643 116.841 109.533 116.687 109.481L93.4886 101.748Z" fill="#E6E6E6"/>
<path d="M136.688 144.598L113.489 136.865C113.233 136.779 113.021 136.596 112.9 136.355C112.78 136.115 112.76 135.836 112.846 135.581L120.939 111.54C121.026 111.285 121.21 111.075 121.452 110.955C121.694 110.835 121.973 110.816 122.23 110.901L145.429 118.634C145.685 118.719 145.897 118.903 146.017 119.143C146.138 119.384 146.157 119.663 146.072 119.918L137.978 143.958C137.892 144.213 137.708 144.424 137.466 144.544C137.224 144.663 136.944 144.683 136.688 144.598ZM122.1 111.285C121.947 111.234 121.779 111.246 121.634 111.318C121.488 111.39 121.378 111.516 121.326 111.669L113.233 135.71C113.181 135.863 113.193 136.03 113.265 136.175C113.338 136.319 113.465 136.429 113.618 136.48L136.817 144.213C136.971 144.265 137.139 144.253 137.284 144.181C137.429 144.109 137.54 143.983 137.591 143.83L145.685 119.789C145.736 119.636 145.724 119.469 145.652 119.324C145.58 119.18 145.453 119.07 145.299 119.019L122.1 111.285Z" fill="#E6E6E6"/>
<path d="M108.924 85.5479C111.218 85.5479 113.077 83.6979 113.077 81.4159C113.077 79.1339 111.218 77.2839 108.924 77.2839C106.631 77.2839 104.772 79.1339 104.772 81.4159C104.772 83.6979 106.631 85.5479 108.924 85.5479Z" fill="#8FE1D7"/>
<path d="M118.897 81.8353C118.723 81.7773 118.532 81.7905 118.368 81.8719C118.204 81.9533 118.079 82.0964 118.02 82.2696C117.962 82.4428 117.975 82.6319 118.057 82.7954C118.139 82.9589 118.283 83.0833 118.457 83.1413L149.394 93.4535C149.481 93.4822 149.572 93.4937 149.662 93.4875C149.753 93.4812 149.841 93.4572 149.923 93.4169C150.004 93.3766 150.077 93.3207 150.136 93.2525C150.196 93.1842 150.242 93.105 150.27 93.0192C150.299 92.9335 150.311 92.8429 150.305 92.7527C150.298 92.6625 150.274 92.5744 150.234 92.4934C150.193 92.4124 150.137 92.3402 150.068 92.2809C150 92.2215 149.92 92.1762 149.834 92.1474L118.897 81.8353Z" fill="#E6E6E6"/>
<path d="M117.578 85.7531C117.492 85.7244 117.401 85.7128 117.31 85.7191C117.22 85.7254 117.131 85.7493 117.05 85.7897C116.968 85.83 116.896 85.8859 116.836 85.9541C116.777 86.0223 116.731 86.1016 116.702 86.1873C116.673 86.2731 116.662 86.3637 116.668 86.4539C116.674 86.5441 116.698 86.6322 116.739 86.7132C116.779 86.7941 116.836 86.8663 116.904 86.9257C116.973 86.985 117.052 87.0304 117.139 87.0591L130.451 91.4966C130.537 91.5253 130.628 91.5369 130.719 91.5306C130.81 91.5243 130.898 91.5003 130.979 91.46C131.061 91.4197 131.133 91.3638 131.193 91.2956C131.253 91.2274 131.298 91.1481 131.327 91.0623C131.356 90.9766 131.368 90.886 131.361 90.7958C131.355 90.7056 131.331 90.6175 131.29 90.5365C131.25 90.4556 131.194 90.3834 131.125 90.324C131.057 90.2646 130.977 90.2193 130.891 90.1906L117.578 85.7531Z" fill="#E6E6E6"/>
<path d="M103.356 87.9787C102.856 87.8123 102.352 87.9699 102.23 88.3309C102.109 88.6918 102.417 89.1192 102.916 89.2856L145.6 103.513C146.1 103.68 146.604 103.522 146.726 103.161C146.847 102.8 146.539 102.373 146.04 102.206L103.356 87.9787Z" fill="#E6E6E6"/>
<path d="M102.037 91.8969C101.537 91.7305 101.033 91.8881 100.911 92.2491C100.79 92.61 101.098 93.0374 101.597 93.2038L144.281 107.432C144.781 107.598 145.285 107.44 145.407 107.079C145.528 106.718 145.22 106.291 144.721 106.125L102.037 91.8969Z" fill="#E6E6E6"/>
<path d="M123.3 44.1264C125.593 44.1264 127.452 42.2765 127.452 39.9944C127.452 37.7124 125.593 35.8624 123.3 35.8624C121.006 35.8624 119.147 37.7124 119.147 39.9944C119.147 42.2765 121.006 44.1264 123.3 44.1264Z" fill="#8FE1D7"/>
<path d="M133.272 40.4135C133.186 40.3847 133.095 40.3732 133.004 40.3795C132.914 40.3857 132.825 40.4097 132.744 40.45C132.662 40.4904 132.59 40.5462 132.53 40.6145C132.471 40.6827 132.425 40.7619 132.396 40.8477C132.367 40.9335 132.356 41.024 132.362 41.1143C132.368 41.2045 132.392 41.2926 132.433 41.3735C132.473 41.4545 132.53 41.5267 132.598 41.5861C132.667 41.6454 132.746 41.6908 132.833 41.7195L163.77 52.0316C163.856 52.0603 163.947 52.0719 164.038 52.0656C164.129 52.0593 164.217 52.0354 164.298 51.995C164.38 51.9547 164.452 51.8988 164.512 51.8306C164.572 51.7624 164.617 51.6831 164.646 51.5974C164.675 51.5116 164.687 51.421 164.68 51.3308C164.674 51.2406 164.65 51.1525 164.609 51.0715C164.569 50.9906 164.513 50.9184 164.444 50.859C164.376 50.7997 164.296 50.7543 164.21 50.7256L133.272 40.4135Z" fill="#E6E6E6"/>
<path d="M131.953 44.3316C131.867 44.3029 131.776 44.2913 131.686 44.2976C131.595 44.3039 131.506 44.3279 131.425 44.3682C131.344 44.4085 131.271 44.4644 131.211 44.5326C131.152 44.6009 131.106 44.6801 131.077 44.7659C131.048 44.8516 131.037 44.9422 131.043 45.0324C131.049 45.1226 131.074 45.2107 131.114 45.2917C131.155 45.3726 131.211 45.4449 131.279 45.5042C131.348 45.5636 131.428 45.6089 131.514 45.6376L144.826 50.0751C144.912 50.1038 145.003 50.1154 145.094 50.1091C145.185 50.1028 145.273 50.0789 145.355 50.0385C145.436 49.9982 145.509 49.9423 145.568 49.8741C145.628 49.8059 145.673 49.7266 145.702 49.6409C145.731 49.5551 145.743 49.4645 145.736 49.3743C145.73 49.2841 145.706 49.196 145.666 49.115C145.625 49.0341 145.569 48.9619 145.5 48.9025C145.432 48.8432 145.352 48.7978 145.266 48.7691L131.953 44.3316Z" fill="#E6E6E6"/>
<path d="M128.972 72.923L107.21 65.6691L115.303 58.5494C115.448 58.4217 115.624 58.3343 115.814 58.2959C116.004 58.2575 116.2 58.2695 116.384 58.3307C116.568 58.3919 116.732 58.5001 116.86 58.6445C116.988 58.7888 117.076 58.9642 117.115 59.1531L118.033 63.653L123.911 58.4809C124.093 58.3212 124.314 58.2118 124.551 58.1638C124.789 58.1158 125.035 58.1309 125.265 58.2075C125.495 58.2841 125.7 58.4196 125.861 58.6003C126.021 58.781 126.131 59.0006 126.179 59.2369L128.972 72.923ZM108.009 65.5075L128.432 72.3151L125.78 59.3186C125.746 59.1521 125.668 58.9974 125.555 58.8701C125.442 58.7428 125.297 58.6474 125.135 58.5934C124.973 58.5394 124.8 58.5288 124.632 58.5626C124.465 58.5964 124.309 58.6734 124.182 58.786L117.774 64.4227L116.715 59.2341C116.691 59.1151 116.635 59.0045 116.554 58.9135C116.474 58.8226 116.37 58.7544 116.254 58.7158C116.139 58.6772 116.015 58.6696 115.895 58.6938C115.776 58.718 115.665 58.7731 115.573 58.8535L108.009 65.5075Z" fill="#E6E6E6"/>
<path d="M128.994 72.9276L105.795 65.1949C105.539 65.1092 105.327 64.9259 105.207 64.6851C105.086 64.4444 105.067 64.166 105.152 63.9109L109.489 51.0272C109.576 50.7723 109.76 50.5618 110.002 50.4419C110.244 50.322 110.524 50.3025 110.78 50.3876L133.979 58.1205C134.235 58.2062 134.447 58.3896 134.567 58.6303C134.688 58.871 134.707 59.1494 134.622 59.4045L130.284 72.288C130.198 72.5429 130.014 72.7534 129.772 72.8733C129.53 72.9932 129.25 73.0127 128.994 72.9276ZM110.65 50.7721C110.497 50.7211 110.329 50.7328 110.184 50.8047C110.039 50.8767 109.928 51.003 109.876 51.156L105.539 64.0397C105.488 64.1927 105.5 64.3598 105.572 64.5042C105.644 64.6486 105.771 64.7586 105.925 64.81L129.124 72.5429C129.278 72.5939 129.445 72.5822 129.591 72.5102C129.736 72.4383 129.846 72.312 129.898 72.159L134.235 59.2753C134.287 59.1223 134.275 58.9552 134.203 58.8108C134.13 58.6664 134.003 58.5564 133.85 58.505L110.65 50.7721Z" fill="#E6E6E6"/>
<path d="M96.8921 107.969C96.8059 107.94 96.7148 107.928 96.6241 107.935C96.5333 107.941 96.4447 107.965 96.3632 108.005C96.2818 108.045 96.2091 108.101 96.1494 108.169C96.0897 108.238 96.0441 108.317 96.0152 108.403C95.9863 108.489 95.9747 108.579 95.981 108.67C95.9873 108.76 96.0115 108.848 96.0521 108.929C96.0927 109.01 96.149 109.082 96.2177 109.142C96.2864 109.201 96.3661 109.246 96.4524 109.275L109.765 113.712C109.939 113.77 110.129 113.757 110.293 113.675C110.457 113.594 110.582 113.451 110.64 113.278C110.698 113.105 110.685 112.916 110.604 112.752C110.522 112.589 110.378 112.465 110.205 112.406L96.8921 107.969Z" fill="#E6E6E6"/>
<path d="M95.5969 111.816C95.5107 111.787 95.4196 111.776 95.3289 111.782C95.2381 111.788 95.1495 111.812 95.068 111.852C94.9866 111.893 94.9139 111.948 94.8542 112.017C94.7945 112.085 94.7489 112.164 94.72 112.25C94.6911 112.336 94.6795 112.427 94.6858 112.517C94.6921 112.607 94.7163 112.695 94.7569 112.776C94.7975 112.857 94.8538 112.93 94.9225 112.989C94.9912 113.048 95.0709 113.094 95.1572 113.122L108.47 117.56C108.644 117.618 108.834 117.604 108.997 117.523C109.161 117.441 109.286 117.298 109.344 117.126C109.402 116.953 109.389 116.764 109.308 116.601C109.226 116.437 109.083 116.313 108.91 116.254L95.5969 111.816Z" fill="#E6E6E6"/>
<path d="M133.414 137.993C133.588 138.051 133.777 138.037 133.942 137.956C134.106 137.874 134.231 137.731 134.289 137.558C134.347 137.385 134.334 137.196 134.252 137.033C134.171 136.869 134.027 136.745 133.853 136.687L120.541 132.249C120.367 132.192 120.177 132.205 120.013 132.286C119.849 132.368 119.724 132.511 119.665 132.684C119.607 132.857 119.62 133.046 119.702 133.209C119.784 133.373 119.927 133.497 120.101 133.555L133.414 137.993Z" fill="#E6E6E6"/>
<path d="M134.709 134.145C134.795 134.174 134.886 134.186 134.977 134.179C135.067 134.173 135.156 134.149 135.237 134.109C135.319 134.069 135.392 134.013 135.451 133.945C135.511 133.876 135.557 133.797 135.586 133.711C135.614 133.625 135.626 133.535 135.62 133.444C135.613 133.354 135.589 133.266 135.549 133.185C135.508 133.104 135.452 133.032 135.383 132.972C135.314 132.913 135.235 132.868 135.148 132.839L121.836 128.402C121.75 128.373 121.659 128.361 121.568 128.367C121.477 128.373 121.388 128.397 121.307 128.438C121.225 128.478 121.153 128.534 121.093 128.602C121.033 128.67 120.988 128.75 120.959 128.836C120.93 128.921 120.918 129.012 120.925 129.102C120.931 129.193 120.955 129.281 120.996 129.362C121.036 129.443 121.093 129.515 121.161 129.574C121.23 129.634 121.31 129.679 121.396 129.708L134.709 134.145Z" fill="#E6E6E6"/>
<path d="M155.501 72.5198C155.587 72.5486 155.678 72.5603 155.769 72.5541C155.859 72.5479 155.948 72.524 156.03 72.4837C156.111 72.4434 156.184 72.3875 156.243 72.3192C156.303 72.251 156.349 72.1716 156.378 72.0858C156.406 72 156.418 71.9093 156.412 71.819C156.405 71.7288 156.381 71.6406 156.341 71.5596C156.3 71.4786 156.244 71.4064 156.175 71.347C156.106 71.2877 156.027 71.2424 155.94 71.2138L142.628 66.7763C142.542 66.7474 142.451 66.7358 142.36 66.7419C142.269 66.7481 142.18 66.7721 142.099 66.8124C142.018 66.8527 141.945 66.9086 141.885 66.9768C141.825 67.0451 141.78 67.1244 141.751 67.2102C141.722 67.2961 141.71 67.3867 141.717 67.477C141.723 67.5673 141.747 67.6555 141.788 67.7365C141.828 67.8175 141.885 67.8897 141.953 67.949C142.022 68.0084 142.102 68.0537 142.188 68.0823L155.501 72.5198Z" fill="#E6E6E6"/>
<path d="M154.394 75.6013C154.481 75.6302 154.572 75.6418 154.662 75.6356C154.753 75.6294 154.842 75.6055 154.923 75.5652C155.005 75.5249 155.077 75.469 155.137 75.4008C155.197 75.3325 155.242 75.2532 155.271 75.1673C155.3 75.0815 155.312 74.9909 155.306 74.9006C155.299 74.8103 155.275 74.7221 155.234 74.6411C155.194 74.5601 155.138 74.4879 155.069 74.4285C155 74.3692 154.92 74.3239 154.834 74.2953L141.522 69.8578C141.435 69.8289 141.344 69.8173 141.254 69.8235C141.163 69.8297 141.074 69.8536 140.993 69.8939C140.911 69.9342 140.839 69.9901 140.779 70.0584C140.719 70.1266 140.674 70.2059 140.645 70.2918C140.616 70.3776 140.604 70.4682 140.611 70.5585C140.617 70.6488 140.641 70.737 140.682 70.818C140.722 70.899 140.778 70.9712 140.847 71.0306C140.916 71.0899 140.996 71.1352 141.082 71.1638L154.394 75.6013Z" fill="#E6E6E6"/>
<path d="M42.9085 68.0142C46.7968 68.0142 49.9489 64.8777 49.9489 61.0087C49.9489 57.1397 46.7968 54.0032 42.9085 54.0032C39.0201 54.0032 35.868 57.1397 35.868 61.0087C35.868 64.8777 39.0201 68.0142 42.9085 68.0142Z" fill="#9F616A"/>
<path d="M38.8388 61.8754C39.3968 61.8422 39.9418 62.0295 40.4961 62.1032C42.4791 62.3651 44.5417 60.9334 44.9796 58.9914C45.0148 58.7327 45.0922 58.4816 45.209 58.2479C45.5143 57.752 46.2092 57.6576 46.7821 57.7716C47.355 57.8856 47.8982 58.1524 48.4817 58.183C49.3826 58.2301 50.2475 57.6781 50.7277 56.9181C51.1814 56.1341 51.3743 55.2274 51.2789 54.3276L50.8469 54.7786C50.6714 54.4092 50.6037 53.9982 50.6514 53.5923C50.4225 53.5317 50.1818 53.5305 49.9523 53.5889C49.7228 53.6473 49.5123 53.7634 49.3408 53.926C48.9599 53.9663 49.2475 53.2232 48.9648 52.9664C48.8272 52.8823 48.6631 52.8518 48.5043 52.8808C47.6941 52.8885 47.0387 52.272 46.4003 51.7757C45.2942 50.9176 44.0007 50.3305 42.6244 50.0618C41.7096 49.8842 40.7368 49.8558 39.8693 50.1939C39.1689 50.5067 38.5369 50.9529 38.0087 51.5072C36.6503 52.8057 35.4475 54.3338 34.8826 56.1225C34.4232 57.5876 34.4102 59.1553 34.8452 60.6277C35.0728 61.3923 35.7592 64.0112 36.7638 64.0722C38.0252 64.1494 37.2677 61.9687 38.8388 61.8754Z" fill="#2F2E41"/>
<path d="M29.0894 117.098C29.4799 116.832 29.8069 116.483 30.0474 116.078C30.2879 115.672 30.4361 115.219 30.4815 114.75C30.5269 114.281 30.4685 113.808 30.3103 113.364C30.1521 112.92 29.898 112.516 29.5659 112.18L30.822 84.2798L24.4268 84.994L24.7984 112.285C24.2684 112.878 23.9754 113.643 23.9748 114.436C23.9741 115.23 24.2659 115.995 24.7949 116.589C25.3239 117.182 26.0532 117.562 26.8448 117.656C27.6363 117.75 28.435 117.552 29.0894 117.099L29.0894 117.098Z" fill="#A0616A"/>
<path d="M40.7561 164.327L44.396 164.963L47.9934 151.296L43.2243 150.356L40.7561 164.327Z" fill="#A0616A"/>
<path d="M50.796 169.56L39.3554 167.549L40.1362 163.151L47.1567 164.385C48.329 164.591 49.371 165.252 50.0535 166.222C50.736 167.193 51.0031 168.393 50.796 169.56Z" fill="#2F2E41"/>
<path d="M30.7656 166.14L34.461 166.14L36.219 151.956L30.765 151.956L30.7656 166.14Z" fill="#A0616A"/>
<path d="M41.5851 169.554L29.9702 169.554L29.9702 165.089L37.0976 165.089C38.2877 165.089 39.4291 165.559 40.2707 166.397C41.1123 167.234 41.5851 168.37 41.5851 169.554Z" fill="#2F2E41"/>
<path d="M46.1847 161.056C46.127 161.056 46.0694 161.053 46.0122 161.046L41.6623 160.69C41.2748 160.644 40.9212 160.448 40.6794 160.143C40.4376 159.838 40.3273 159.451 40.3729 159.065C40.3757 159.041 40.3792 159.016 40.3834 158.992L44.7027 137.792L41.9887 123.552C41.9667 123.436 41.9034 123.332 41.8103 123.259C41.7173 123.186 41.6009 123.149 41.4826 123.155C41.3642 123.161 41.2521 123.209 41.1667 123.291C41.0814 123.373 41.0287 123.482 41.0184 123.6L37.0217 159.782C36.9845 160.163 36.7999 160.515 36.5069 160.763C36.2139 161.011 35.8354 161.137 35.4513 161.113L31.3533 160.961C30.9942 160.936 30.6568 160.78 30.4049 160.524C30.153 160.268 30.0039 159.93 29.9859 159.572L30.3133 115.85L51.5596 113.207L53.0438 136.015L53.0378 136.039L47.6142 159.937C47.5362 160.256 47.3529 160.54 47.0937 160.742C46.8345 160.945 46.5144 161.056 46.1847 161.056Z" fill="#2F2E41"/>
<path d="M44.294 119.177C43.1357 119.184 41.9997 118.861 41.0204 118.245C37.434 116.015 33.3606 116.901 31.2516 117.629C31.0423 117.702 30.8191 117.727 30.5988 117.702C30.3785 117.677 30.1667 117.603 29.9793 117.485C29.794 117.369 29.6375 117.213 29.5214 117.029C29.4053 116.844 29.3326 116.636 29.3089 116.42L25.4745 82.3372C24.8318 76.627 28.2887 71.2583 33.6942 69.572C33.8972 69.5086 34.1036 69.4485 34.3135 69.3918C35.9956 68.938 37.7572 68.8566 39.4744 69.1531C41.1916 69.4497 42.8226 70.1172 44.2526 71.1085C45.7094 72.1105 46.9278 73.418 47.822 74.939C48.7162 76.46 49.2646 78.1575 49.4284 79.9121L52.6578 114.222C52.6796 114.444 52.6493 114.668 52.5692 114.877C52.4891 115.086 52.3614 115.273 52.1962 115.424C51.0644 116.466 47.7795 119.176 44.294 119.177Z" fill="#8FE1D7"/>
<path d="M32.6159 89.6456L23.9634 88.6992C23.7172 88.6722 23.4798 88.5928 23.2672 88.4663C23.0547 88.3398 22.872 88.1692 22.7317 87.9662C22.5914 87.7631 22.4967 87.5324 22.4541 87.2896C22.4114 87.0469 22.4219 86.7978 22.4847 86.5595L24.6871 78.207C24.7536 77.5847 24.9426 76.9816 25.2435 76.432C25.5444 75.8825 25.9511 75.3973 26.4405 75.0043C26.9299 74.6112 27.4924 74.318 28.0957 74.1414C28.6991 73.9647 29.3315 73.9081 29.9568 73.9748C30.5821 74.0414 31.1882 74.2301 31.7402 74.5299C32.2922 74.8298 32.7795 75.2349 33.174 75.7222C33.5686 76.2095 33.8628 76.7694 34.0399 77.3699C34.2169 77.9704 34.2732 78.5997 34.2057 79.2219C34.2038 79.2399 34.2017 79.2578 34.1996 79.2758L34.5265 87.8767C34.5358 88.1229 34.4916 88.3683 34.397 88.596C34.3024 88.8238 34.1595 89.0286 33.9782 89.1964C33.7969 89.3643 33.5813 89.4913 33.3462 89.5688C33.1112 89.6463 32.862 89.6725 32.6159 89.6456Z" fill="#8FE1D7"/>
<path d="M52.6217 115.903C52.9771 115.592 53.2596 115.207 53.4493 114.775C53.639 114.344 53.7312 113.876 53.7196 113.405C53.7079 112.934 53.5926 112.472 53.3818 112.05C53.171 111.628 52.8698 111.257 52.4994 110.964L50.3674 83.1164L44.1009 84.5202L47.7795 111.639C47.3253 112.291 47.1273 113.086 47.2227 113.873C47.3182 114.661 47.7006 115.386 48.2975 115.911C48.8943 116.437 49.6642 116.726 50.4612 116.725C51.2582 116.723 52.027 116.431 52.6219 115.903L52.6217 115.903Z" fill="#A0616A"/>
<path d="M41.6981 87.895C41.5166 87.7271 41.3737 87.5222 41.2791 87.2943C41.1845 87.0664 41.1405 86.8208 41.15 86.5744L41.4769 77.9735C41.3422 76.7222 41.7107 75.4688 42.5018 74.487C43.293 73.5052 44.4425 72.8748 45.6992 72.7336C46.9559 72.5924 48.2177 72.9518 49.2089 73.7334C50.2002 74.515 50.8403 75.6551 50.9894 76.9048L53.1918 85.2572C53.2546 85.4956 53.265 85.7446 53.2224 85.9873C53.1798 86.2301 53.0851 86.4609 52.9448 86.6639C52.8045 86.867 52.6218 87.0376 52.4093 87.164C52.1967 87.2905 51.9593 87.37 51.7131 87.3969L43.0606 88.3433C42.8144 88.3704 42.5652 88.3443 42.3301 88.2667C42.0949 88.1892 41.8794 88.0621 41.6981 87.8941L41.6981 87.895Z" fill="#8FE1D7"/>
<path d="M163.286 169.56L0 169.56L-9.62047e-09 170L163.286 170L163.286 169.56Z" fill="#CACACA"/>
</g>
<defs>
<clipPath id="clip0_124_48">
<rect width="187.156" height="170" fill="white"/>
</clipPath>
</defs>
</svg>
